<svg width="32" height="32" viewBox="0 0 32 32" fill="none" xmlns="http://www.w3.org/2000/svg">
<path fill-rule="evenodd" clip-rule="evenodd" d="M20.5 5H22.5V6H24.5C25.6046 6 26.5 6.89543 26.5 8V24C26.5 25.1046 25.6046 26 24.5 26H7.5C6.39543 26 5.5 25.1046 5.5 24V8C5.5 6.89543 6.39543 6 7.5 6H9.5V5H11.5V6H20.5V5ZM9.5 8V9H11.5V8H20.5V9H22.5V8H24.5V12H7.5V8H9.5ZM9.5 15H12.5V18H9.5V15ZM17.5 15H14.5V18H17.5V15ZM19.5 15H22.5V18H19.5V15ZM22.5 20H19.5V23H22.5V20ZM14.5 20H17.5V23H14.5V20ZM12.5 20H9.5V23H12.5V20Z" fill="white"/>
</svg>
