<svg width="32" height="32" viewBox="0 0 32 32" fill="none" xmlns="http://www.w3.org/2000/svg">
<path fill-rule="evenodd" clip-rule="evenodd" d="M28.8924 25.5122C29.5924 26.3122 29.4924 27.4122 28.5924 28.0122L25.0924 30.6122C22.2924 32.7122 13.7924 27.2122 9.69242 21.4122C5.59242 15.6122 2.79242 6.01216 5.69242 3.91216L9.19242 1.31216C9.99242 0.712155 11.1924 1.01216 11.6924 1.91216L14.8924 7.51216C15.3924 8.41216 15.1924 9.51216 14.3924 10.1122L12.1924 11.7122C11.7924 12.0122 11.4924 12.7122 11.7924 13.3122C11.7924 13.3122 11.7924 13.4122 11.8924 13.6122C11.9924 13.8122 12.0924 14.1122 12.1924 14.4122C12.4924 15.1122 13.7924 17.0122 14.4924 17.9122C15.0924 18.8122 16.5924 20.6122 17.2924 21.3122C17.4924 21.5122 17.6924 21.7122 17.8924 21.8122C17.9924 21.9122 18.0924 21.9122 18.0924 22.0122C18.4924 22.3122 19.2924 22.4122 19.6924 22.0122L21.8924 20.4122C22.6924 19.8122 23.8924 19.9122 24.4924 20.7122L28.8924 25.5122Z" fill="#DDDFE7"/>
</svg>
