<svg width="32" height="32" viewBox="0 0 32 32" fill="none" xmlns="http://www.w3.org/2000/svg">
<path fill-rule="evenodd" clip-rule="evenodd" d="M19.3078 16.0066C20.9301 14.9327 22 13.0913 22 11C22 7.68629 19.3137 5 16 5C12.6863 5 10 7.68629 10 11C10 13.0913 11.0699 14.9327 12.6922 16.0066C8.96903 16.1677 6 19.2371 6 23V25C6 26.1046 6.89543 27 8 27H18.689C18.5656 26.5206 18.5 26.0179 18.5 25.5C18.5 22.1863 21.1863 19.5 24.5 19.5C24.6955 19.5 24.8887 19.5093 25.0794 19.5276C23.9209 17.5036 21.7807 16.1136 19.3078 16.0066Z" fill="white"/>
<path fill-rule="evenodd" clip-rule="evenodd" d="M24.5 30C26.9853 30 29 27.9853 29 25.5C29 23.0147 26.9853 21 24.5 21C22.0147 21 20 23.0147 20 25.5C20 27.9853 22.0147 30 24.5 30ZM25 23V25H27V26H25V28H24L24 26H22V25H24V23H25Z" fill="white"/>
</svg>
