<svg width="375" height="44" viewBox="0 0 375 44" fill="none" xmlns="http://www.w3.org/2000/svg">
<path d="M325.5 26.2C325.6 26.1 325.6 26.1 325.6 26C325.6 25.9 325.6 25.8 325.5 25.8C324.2 24.7 322.4 24.7 321.1 25.8C321 25.9 321 25.9 321 26C321 26.1 321 26.2 321.1 26.2L323.1 28.2C323.2 28.3 323.2 28.3 323.3 28.3C323.4 28.3 323.5 28.3 323.5 28.2L325.5 26.2ZM323.3 23.4C324.5 23.4 325.7 23.9 326.6 24.7C326.7 24.8 326.9 24.8 327 24.7L328.2 23.5C328.3 23.4 328.3 23.4 328.3 23.3C328.3 23.2 328.3 23.1 328.2 23.1C325.5 20.5 321.2 20.5 318.4 23.1C318.3 23.2 318.3 23.2 318.3 23.3C318.3 23.4 318.3 23.5 318.4 23.5L319.6 24.7C319.7 24.8 319.9 24.8 320 24.7C320.9 23.9 322.1 23.4 323.3 23.4ZM323.3 19.6C325.5 19.6 327.6 20.5 329.3 22C329.4 22.1 329.6 22.1 329.7 22L330.9 20.8C331 20.7 331 20.7 331 20.6C331 20.5 331 20.4 330.9 20.4C326.7 16.4 320 16.4 315.8 20.4C315.7 20.5 315.7 20.5 315.7 20.6C315.7 20.7 315.7 20.8 315.8 20.8L317 22C317.1 22.1 317.3 22.1 317.4 22C319 20.5 321.1 19.6 323.3 19.6Z" fill="white"/>
<path fill-rule="evenodd" clip-rule="evenodd" d="M55.2 29H57.4V18.4H55.2L52.5 20.3V22.4L55.1 20.6H55.2V29ZM44.6 25.3V25.4H47.8V20.2H47.7C46.7 21.6 45.8 23.1 44.6 25.3ZM47.8 29V27.2H42.6V25.2C43.6 23.4 44.9 21.2 46.8 18.4H49.9V25.3H51.3V27.1H49.9V29H47.8ZM39.5 22.5C40.3 22.5 40.8 22 40.8 21.2C40.8 20.5 40.3 19.9 39.5 19.9C38.7 19.9 38.2 20.4 38.2 21.2C38.2 22 38.7 22.5 39.5 22.5ZM39.5 27.9C40.3 27.9 40.8 27.4 40.8 26.6C40.8 25.8 40.3 25.3 39.5 25.3C38.7 25.3 38.2 25.8 38.2 26.6C38.2 27.4 38.7 27.9 39.5 27.9ZM32 23.7C33.1 23.7 33.9 22.9 33.9 21.9C33.9 20.8 33.1 20 32 20C30.9 20 30.1 20.8 30.1 21.9C30.1 22.9 30.9 23.7 32 23.7ZM31.9 29.3C29.9 29.3 28.3 28.1 28 26.3H30.2C30.4 27 31.1 27.4 31.9 27.4C33.4 27.4 34.2 26 34.2 23.8H34.1C33.6 24.8 32.6 25.4 31.4 25.4C29.4 25.4 27.9 23.9 27.9 21.9C27.9 19.7 29.6 18.1 31.9 18.1C33.4 18.1 34.7 18.8 35.4 20C36 20.9 36.3 22.1 36.3 23.6C36.3 27.1 34.7 29.3 31.9 29.3Z" fill="white"/>
<path d="M308.7 17.7H309.7C310.3 17.7 310.7 18.1 310.7 18.7V27.4C310.7 28 310.3 28.4 309.7 28.4H308.7C308.1 28.4 307.7 28 307.7 27.4V18.7C307.7 18.1 308.1 17.7 308.7 17.7ZM304 20H305C305.6 20 306 20.4 306 21V27.3C306 27.9 305.6 28.3 305 28.3H304C303.4 28.3 303 27.9 303 27.3V21C303 20.4 303.4 20 304 20ZM299.3 22.3H300.3C300.9 22.3 301.3 22.7 301.3 23.3V27.3C301.3 27.9 300.9 28.3 300.3 28.3H299.3C298.7 28.3 298.3 27.9 298.3 27.3V23.3C298.3 22.8 298.8 22.3 299.3 22.3ZM294.7 24.3H295.7C296.3 24.3 296.7 24.7 296.7 25.3V27.3C296.7 27.9 296.3 28.3 295.7 28.3H294.7C294.1 28.3 293.7 27.9 293.7 27.3V25.3C293.7 24.8 294.1 24.3 294.7 24.3Z" fill="white"/>
<g opacity="0.35">
<path opacity="0.35" d="M355.3 18.3C356.2 18.3 357 19 357 20V26C357 26.9 356.3 27.7 355.3 27.7H338.6C337.7 27.7 336.9 27 336.9 26V20C336.9 19.1 337.6 18.3 338.6 18.3H355.3ZM355.3 17.3H338.6C337.1 17.3 335.9 18.5 335.9 20V26C335.9 27.5 337.1 28.7 338.6 28.7H355.3C356.8 28.7 358 27.5 358 26V20C358 18.5 356.8 17.3 355.3 17.3Z" fill="white"/>
</g>
<path d="M339.3 19.3H354.6C355.3 19.3 355.9 19.9 355.9 20.6V25.3C355.9 26 355.3 26.6 354.6 26.6H339.3C338.6 26.6 338 26 338 25.3V20.6C338 19.9 338.6 19.3 339.3 19.3Z" fill="white"/>
<path opacity="0.35" d="M359 21V25C359.8 24.7 360.3 23.9 360.3 23C360.3 22.1 359.8 21.3 359 21Z" fill="white"/>
</svg>
