<svg width="117" height="18" viewBox="0 0 117 18" fill="none" xmlns="http://www.w3.org/2000/svg">
<path d="M27.5557 14.4H27.6037L33.1717 0H35.0437L28.4197 16.992H26.6917L20.2357 0H22.1557L27.5557 14.4Z" fill="#F6F7FB"/>
<path d="M41.4116 15.408H50.5076V16.992H39.6836V0H50.2196V1.584H41.4116V7.368H49.6436V8.952H41.4116V15.408Z" fill="#F6F7FB"/>
<path d="M58.0381 7.512H61.1101C61.8781 7.512 62.5261 7.432 63.0541 7.272C63.5981 7.112 64.0301 6.904 64.3501 6.648C64.6701 6.376 64.9021 6.064 65.0461 5.712C65.1901 5.344 65.2621 4.952 65.2621 4.536C65.2621 4.136 65.1901 3.76 65.0461 3.408C64.9021 3.04 64.6701 2.72 64.3501 2.448C64.0301 2.176 63.5981 1.968 63.0541 1.824C62.5261 1.664 61.8781 1.584 61.1101 1.584H58.0381V7.512ZM58.0381 16.992H56.3101V0H61.5421C63.2701 0 64.6301 0.375999 65.6221 1.128C66.6301 1.88 67.1341 3.016 67.1341 4.536C67.1341 5.72 66.7581 6.72 66.0061 7.536C65.2701 8.336 64.1981 8.8 62.7901 8.928L67.6861 16.992H65.5741L60.9181 9.096H58.0381V16.992Z" fill="#F6F7FB"/>
<path d="M74.6647 15.408H82.5847V16.992H72.9367V0H74.6647V15.408Z" fill="#F6F7FB"/>
<path d="M89.5687 10.944H96.9367L93.2647 2.016L89.5687 10.944ZM87.0487 16.992H85.0327L92.4247 0H94.1047L101.497 16.992H99.4807L97.6087 12.528H88.9207L87.0487 16.992Z" fill="#F6F7FB"/>
<path d="M107.438 7.512H110.222C110.99 7.512 111.638 7.432 112.166 7.272C112.71 7.112 113.142 6.904 113.462 6.648C113.782 6.376 114.014 6.064 114.158 5.712C114.302 5.344 114.374 4.952 114.374 4.536C114.374 4.136 114.302 3.76 114.158 3.408C114.014 3.04 113.782 2.72 113.462 2.448C113.142 2.176 112.71 1.968 112.166 1.824C111.638 1.664 110.99 1.584 110.222 1.584H107.438V7.512ZM105.71 0H110.654C112.382 0 113.742 0.375999 114.734 1.128C115.742 1.88 116.246 3.016 116.246 4.536C116.246 6.056 115.742 7.2 114.734 7.968C113.742 8.72 112.382 9.096 110.654 9.096H107.438V16.992H105.71V0Z" fill="#F6F7FB"/>
<path fill-rule="evenodd" clip-rule="evenodd" d="M9 16.2462C13.0019 16.2462 16.2462 13.0019 16.2462 9C16.2462 4.99806 13.0019 1.75385 9 1.75385C4.99806 1.75385 1.75385 4.99806 1.75385 9C1.75385 13.0019 4.99806 16.2462 9 16.2462ZM9 18C13.9706 18 18 13.9706 18 9C18 4.02944 13.9706 0 9 0C4.02944 0 0 4.02944 0 9C0 13.9706 4.02944 18 9 18Z" fill="#F6F7FB"/>
</svg>
