<svg width="32" height="32" viewBox="0 0 32 32" fill="none" xmlns="http://www.w3.org/2000/svg">
<path fill-rule="evenodd" clip-rule="evenodd" d="M16.8078 17.0066C18.4301 15.9327 19.5 14.0913 19.5 12C19.5 8.68629 16.8137 6 13.5 6C10.1863 6 7.5 8.68629 7.5 12C7.5 14.0913 8.56991 15.9327 10.1922 17.0066C6.46903 17.1677 3.5 20.2371 3.5 24V26C3.5 27.1046 4.39543 28 5.5 28H21.5C22.6046 28 23.5 27.1046 23.5 26V24C23.5 20.2371 20.531 17.1677 16.8078 17.0066Z" fill="#DDDFE7"/>
<path fill-rule="evenodd" clip-rule="evenodd" d="M26.4091 5.09091C26.4091 6.51678 25.6796 7.77227 24.5735 8.50453C27.112 8.61437 29.1364 10.7071 29.1364 13.2727V15C29.1364 15.5523 28.6886 16 28.1364 16H19.8451C20.5761 14.8428 21 13.471 21 12C21 9.74119 20.0014 7.71561 18.4217 6.34061C18.2954 5.94668 18.2273 5.52676 18.2273 5.09091C18.2273 2.83156 20.0588 1 22.3182 1C24.5775 1 26.4091 2.83156 26.4091 5.09091Z" fill="#DDDFE7"/>
</svg>
