<svg width="34" height="34" viewBox="0 0 34 34" fill="none" xmlns="http://www.w3.org/2000/svg">
<rect x="7" y="16" width="18" height="2" rx="1" fill="white"/>
<path d="M17.1729 10.1729C17.5634 9.78237 18.1966 9.78237 18.5871 10.1729L24.7023 16.2881C25.0928 16.6786 25.0928 17.3118 24.7023 17.7023C24.3118 18.0928 23.6786 18.0928 23.2881 17.7023L17.1729 11.5871C16.7824 11.1966 16.7824 10.5634 17.1729 10.1729Z" fill="white"/>
<path d="M24.7023 16.2929C24.3118 15.9024 23.6787 15.9024 23.2881 16.2929L17.1729 22.4081C16.7824 22.7986 16.7824 23.4318 17.1729 23.8223C17.5634 24.2128 18.1966 24.2128 18.5871 23.8223L24.7023 17.7071C25.0929 17.3166 25.0929 16.6834 24.7023 16.2929Z" fill="white"/>
</svg>
